<?xml version="1.0" standalone="yes"?>
<svg xmlns="http://www.w3.org/2000/svg" width="97" height="100">
<path style="fill:#000000; stroke:none;" d="M68 55C72.7161 46.8411 88.3647 37.1866 87.7469 27.0586C87.4223 21.7375 81.4346 23.044 78.5756 25.4336C71.4807 31.3636 66.0301 39.0757 60 46C63.3246 36.1726 67.3035 26.4972 71.4738 17C72.8477 13.8711 75.8043 7.99876 72.9722 4.78241C69.5174 0.858864 63.9593 7.36213 62.3519 10.0046C56.0052 20.4379 52.7572 33.453 49 45C44.7093 36.96 47.0821 24.6752 48.615 16C49.1432 13.0107 51.6017 6.3042 48.3966 4.07176C43.0514 0.348671 39.0758 10.5744 38.2392 14C34.8487 27.8823 40.7775 43.0198 32.6065 55.8326C25.385 67.1564 21.8162 30.0522 14.179 41.3218C6.31105 52.9318 18.2616 78.4938 28.0401 85.436C31.5935 87.9587 36.0666 87.6702 40 89.2122C45.3055 91.2922 50.9545 95.6241 56.9961 93.3958C68.0722 89.3108 66.6894 72.8629 73.419 65.2099C77.0545 61.0755 98.3977 53.2314 93.8673 45.3573C90.4659 39.4454 72.4193 53.601 68 55z"/>
<path style="fill:#ffffff; stroke:none;" d="M46 6C35.9759 19.1392 43.7727 34.861 38.7824 49C37.1748 53.5548 35.0589 64.1923 28.0139 60.9568C18.9904 56.8126 22.9683 46.071 16 42C16 56.0168 16.5072 74.2167 30.0432 83.2616C33.2794 85.424 37.3932 85.4152 41 86.598C45.7522 88.1564 50.7071 92.3058 55.9568 90.2539C65.2492 86.6218 65.1057 70.2491 70.6489 63.1049C76.0808 56.1042 86.2537 54.9162 91 47C86.9819 48.272 83.5596 50.4394 80 52.6813C76.5738 54.8392 60.4725 62.1343 66.6721 51C71.6508 42.0584 82.5604 36.2611 85 26L57 52L71 7C61.2416 11.7691 58.6461 26.5084 55.4938 36C54.4663 39.094 53.1464 47.5061 49.196 48.2176C45.3092 48.9176 44.4214 41.4601 44.1705 39C43.1514 29.0068 49.2258 14.9938 46 6z"/>
</svg>
