<?xml version="1.0" standalone="yes"?>
<svg xmlns="http://www.w3.org/2000/svg" width="96" height="97">
<path style="fill:#000000; stroke:none;" d="M42 5.57253C34.8001 7.63777 29.5659 15.7272 24.7145 20.9599C17.1963 29.0689 -4.955 40.3279 5.17901 55.581C7.58141 59.197 13.3389 59.2938 17 60.8526C22.2167 63.0739 28.3249 67.3589 33 70.6481C43.9603 78.3595 51.9352 87.8578 67 83.8804C76.5187 81.3673 91.1489 72.6332 92.7577 62C93.7114 55.6965 89.691 51.2316 87.1458 46C81.2089 33.7966 76.0146 23.5724 64.0864 15.9151C55.9553 10.6953 53.6388 2.23403 42 5.57253z"/>
<path style="fill:#ffffff; stroke:none;" d="M55 19C53.6067 33.9037 28.9206 40.9258 38 56C53.8959 50.8277 59.3083 40.6711 72 31C68.7586 45.2422 51.2362 55.9364 38 59C41.1986 72.167 61.8765 68.4714 69.8958 61.6065C74.2604 57.8702 76.2806 52.484 81 49C75.9269 64.8927 62.97 69.1064 48 71C55.554 84.2405 88.8487 75.8418 89.6127 60C89.8633 54.8019 86.3721 51.2408 84.0733 47C77.1421 34.2131 71.299 26.6485 60.1844 17.4321C53.8884 12.2113 49.2171 3.73727 40 10.4336C32.3161 16.0161 24.9186 24.6066 23.0039 34C21.9785 39.0303 22.3339 46.8988 30 45.1867C39.8214 42.9934 48.373 25.9291 55 19M19 30C11.298 35.6012 -2.40251 53.5125 14.9954 57.081C20.6283 58.2364 22.4285 52.5274 28 53C22.5924 57.655 23.5921 61.974 30 65L33 54C27.4723 46.9566 15.8395 46.3276 15 36L20 39L19 30M34 64C35.9668 70.9878 44.9326 78.574 52 80L52 79L34 64M53 80L53 81L68 80L53 80z"/>
</svg>
