<?xml version="1.0" standalone="yes"?>
<svg xmlns="http://www.w3.org/2000/svg" width="97" height="100">
<path style="fill:#000000; stroke:none;" d="M53 49C45.8144 41.829 42.236 26.7454 40.0108 17C39.1956 13.4297 38.9217 5.24977 34.7762 3.85108C27.1978 1.29409 27.7998 15.0392 28.2863 19C29.649 30.0963 36.6102 40.9996 36.8634 52C37.0163 58.6413 31.4745 63.1257 29.2731 69C26.5671 76.2211 31.6422 90.1695 39.0039 93.1103C43.4082 94.8698 48.4058 94.5373 53 95.3248C58.004 96.1826 62.8786 99.209 67.9568 96.9097C77.8741 92.4194 78.9312 68.0253 76.1613 59C74.1111 52.3198 66.8998 44.0885 66.1875 37.9568C65.2979 30.2984 69.8678 21.9785 72.3009 15C73.2434 12.2969 74.8001 7.98185 71.6782 6.04707C67.1009 3.21022 62.5834 9.65656 60.8248 13C55.5863 22.96 53.4802 37.8439 53 49z"/>
<path style="fill:#ffffff; stroke:none;" d="M33 7C24.8322 23.9725 43.1413 41.6055 39 59L40 60L50.2631 54.9807L45.0679 43L33 7M69 8C60.5799 17.381 57.5325 31.5979 57 44C65.2479 42.6276 64.9778 24.8996 67.6119 18C68.9411 14.5183 70.8695 11.4304 69 8M58 57C61.5576 53.0626 63.5761 51.1668 69 52C68.0415 39.4439 50.7085 49.9586 58 57M62 66L73 62C69.9755 51.9385 60.4529 57.6014 62 66M74 64L71 65L72 70L69 67C63.4641 68.2661 58.8006 72.8412 54 68L53 68L56 85L53 85C52.9713 75.0102 50.0943 68.0781 41 76C41.1919 70.1074 43.3549 68.2356 49 67C34.67 54.3136 29.0203 74.5827 35.6728 85.8951C39.0949 91.7141 63.5028 97.8492 68.3511 92.6813C74.5183 86.1075 74 72.3529 74 64z"/>
</svg>
